<svg width="880" height="300">
	<g>
		<rect x="17" y="95" width="127" height="50" fill="#ffffff"/>
		<line x1="17" x2="17" y1="95" y2="145" style="stroke:#FF8F00;stroke-width:4px"/>
		<text style="font-size:14px">
			<tspan x="31" y="115">Jason</tspan>
			<tspan x="31" y="135">上海合合信息</tspan>
		</text>
		<g>
			<path d="M 144 120 C 206 70 306 60 489 55" style="fill:none;stroke:#979797;stroke-width:1px;" />
			<line x1="480" x2="489" y1="50" y2="55" style="stroke:#979797;stroke-width:1px;" />
			<line x1="480" x2="489" y1="60" y2="55" style="stroke:#979797;stroke-width:1px;" />
		</g>
	</g>
	<g>
		<rect x="206" y="155" width="131" height="50" fill="#ffffff"/>
		<line x1="206" x2="206" y1="155" y2="205" style="stroke:#20B6A9;stroke-width:4px"/>
		<text style="font-size:14px">
			<tspan x="220" y="175">王兆天</tspan>
			<tspan x="220" y="195" style="font-size:12px;fill:#5F5F5F;">销售经理</tspan>
			<tspan x="275" y="184" style="font-size:12px;fill:#5F5F5F;">合合信息...</tspan>
		</text>
	</g>
	<g>
		<rect x="206" y="215" width="131" height="50" fill="#ffffff"/>
		<line x1="206" x2="206" y1="215" y2="265" style="stroke:#20B6A9;stroke-width:4px"/>
		<text style="font-size:14px">
			<tspan x="220" y="235">顾鼎立</tspan>
			<tspan x="220" y="255" style="font-size:12px;fill:#5F5F5F;">销售经理</tspan>
			<tspan x="275" y="244" style="font-size:12px;fill:#5F5F5F;">合合信息...</tspan>
		</text>
	</g>
	<g>
		<rect x="489" y="35" width="196" height="50" fill="#ffffff"/>
		<line x1="489" x2="489" y1="35" y2="85" style="stroke:#2B7EE0;stroke-width:4px"/>
		<text style="font-size:14px">
			<tspan x="503" y="55">刘大风</tspan>
			<tspan x="503" y="75" style="font-size:12px;fill:#5F5F5F;">销售经理</tspan>
			<tspan x="591" y="65" style="font-size:12px;fill:#5F5F5F;">已是潜客联系人</tspan>
		</text>
	</g>
	<g>
		<rect x="489" y="95" width="196" height="50" fill="#ffffff"/>
		<line x1="489" x2="489" y1="95" y2="145" style="stroke:#2B7EE0;stroke-width:4px"/>
		<text>
			<tspan x="503" y="115" style="font-size:14px">张 * *</tspan>
			<tspan x="503" y="135" style="font-size:12px;fill:#5F5F5F;">销售经理</tspan>
		</text>
		<g>
			<rect width="100" height="25" x="575" y="107" rx="3" ry="3" style="fill:none;stroke:#3180DD;stroke-width:1;stroke-opacity:1"/>
			<text x="583" y="125" style="font-size:12px;fill:#3180DD;">加入潜客联系人</text>
		</g>
	</g>
	<g>
		<rect x="489" y="155" width="196" height="50" fill="#ffffff"/>
		<line x1="489" x2="489" y1="155" y2="205" style="stroke:#2B7EE0;stroke-width:4px"/>
		<text>
			<tspan x="503" y="175" style="font-size:14px">王 * *</tspan>
			<tspan x="503" y="195" style="font-size:12px;fill:#5F5F5F;">销售经理</tspan>
		</text>
		<g>
			<rect width="100" height="25" x="575" y="167" rx="3" ry="3" style="fill:none;stroke:#3180DD;stroke-width:1;stroke-opacity:1"/>
			<text x="583" y="185" style="font-size:12px;fill:#3180DD;">加入潜客联系人</text>
		</g>
	</g>
	<g>
		<rect x="489" y="215" width="196" height="50" fill="#ffffff"/>
		<line x1="489" x2="489" y1="215" y2="265" style="stroke:#2B7EE0;stroke-width:4px"/>
		<text>
			<tspan x="503" y="235" style="font-size:14px">李 * *</tspan>
			<tspan x="503" y="255" style="font-size:12px;fill:#5F5F5F;">销售经理</tspan>
		</text>
		<g>
			<rect width="100" height="25" x="575" y="227" rx="3" ry="3" style="fill:none;stroke:#3180DD;stroke-width:1;stroke-opacity:1"/>
			<text x="583" y="245" style="font-size:12px;fill:#3180DD;">加入潜客联系人</text>
		</g>
	</g>
	<g>
		<rect x="746" y="95" width="118" height="50" fill="#ffffff"/>
		<line x1="746" x2="746" y1="95" y2="145" style="stroke:#2B7EE0;stroke-width:4px"/>
		<text style="font-size:14px;fill=#333333">
			<tspan x="756" y="115">锤子科技（北京）</tspan>
			<tspan x="756" y="135">有限公司</tspan>
		</text>
	</g>
</svg>